<?xml version='1.0' encoding='UTF-8' standalone='no'?>
<svg height="742pt" viewBox="0 0 1435 742" width="1435pt" xmlns="http://www.w3.org/2000/svg" xmlns:xlink="http://www.w3.org/1999/xlink">
 <title>Figure 1</title>
 <desc>
Creator: GL2PS 1.4.2, (C) 1999-2020 C. Geuzaine
For: Octave
CreationDate: Wed Jan  8 12:51:01 2025
</desc>
 <defs/>
 <polygon fill="#ffffff" points="0,0 1435,0 1435,742 0,742"/>
 <g>
  <polygon fill="#ffffff" points="0,742 1435,742 1435,0 0,0" shape-rendering="crispEdges"/>
  <clipPath id="cp001435742">
   <polygon points="0,742 1435,742 1435,0 0,0"/>
  </clipPath>
  <g clip-path="url(#cp001435742)">
   <polygon fill="#ffffff" points="186.565,660.623 1298.78,660.623 1298.78,55.6705 186.565,55.6705" shape-rendering="crispEdges"/>
   <polyline fill="none" points="186.565,660.623 186.565,649.502" stroke="#262626" stroke-linecap="butt" stroke-linejoin="miter" stroke-width="0.5"/>
   <polyline fill="none" points="186.565,55.6705 186.565,66.7917" stroke="#262626" stroke-linecap="butt" stroke-linejoin="miter" stroke-width="0.5"/>
   <polyline fill="none" points="409.007,660.623 409.007,649.502" stroke="#262626" stroke-linecap="butt" stroke-linejoin="miter" stroke-width="0.5"/>
   <polyline fill="none" points="409.007,55.6705 409.007,66.7917" stroke="#262626" stroke-linecap="butt" stroke-linejoin="miter" stroke-width="0.5"/>
   <polyline fill="none" points="631.449,660.623 631.449,649.502" stroke="#262626" stroke-linecap="butt" stroke-linejoin="miter" stroke-width="0.5"/>
   <polyline fill="none" points="631.449,55.6705 631.449,66.7917" stroke="#262626" stroke-linecap="butt" stroke-linejoin="miter" stroke-width="0.5"/>
   <polyline fill="none" points="853.891,660.623 853.891,649.502" stroke="#262626" stroke-linecap="butt" stroke-linejoin="miter" stroke-width="0.5"/>
   <polyline fill="none" points="853.891,55.6705 853.891,66.7917" stroke="#262626" stroke-linecap="butt" stroke-linejoin="miter" stroke-width="0.5"/>
   <polyline fill="none" points="1076.33,660.623 1076.33,649.502" stroke="#262626" stroke-linecap="butt" stroke-linejoin="miter" stroke-width="0.5"/>
   <polyline fill="none" points="1076.33,55.6705 1076.33,66.7917" stroke="#262626" stroke-linecap="butt" stroke-linejoin="miter" stroke-width="0.5"/>
   <polyline fill="none" points="1298.78,660.623 1298.78,649.502" stroke="#262626" stroke-linecap="butt" stroke-linejoin="miter" stroke-width="0.5"/>
   <polyline fill="none" points="1298.78,55.6705 1298.78,66.7917" stroke="#262626" stroke-linecap="butt" stroke-linejoin="miter" stroke-width="0.5"/>
   <g font-family="FreeSans" font-size="10" font-style="normal" font-weight="normal" transform="translate(183.565,676.123) rotate(-0,3,-8)" xml:space="preserve">
    <text fill="rgb(38,38,38)" x="0 " y="-0">0</text>
   </g>
   <g font-family="FreeSans" font-size="10" font-style="normal" font-weight="normal" transform="translate(400.007,676.123) rotate(-0,9,-8)" xml:space="preserve">
    <text fill="rgb(38,38,38)" x="0 6 12 " y="-0">200</text>
   </g>
   <g font-family="FreeSans" font-size="10" font-style="normal" font-weight="normal" transform="translate(622.449,676.123) rotate(-0,9,-8)" xml:space="preserve">
    <text fill="rgb(38,38,38)" x="0 6 12 " y="-0">400</text>
   </g>
   <g font-family="FreeSans" font-size="10" font-style="normal" font-weight="normal" transform="translate(844.891,676.123) rotate(-0,9,-8)" xml:space="preserve">
    <text fill="rgb(38,38,38)" x="0 6 12 " y="-0">600</text>
   </g>
   <g font-family="FreeSans" font-size="10" font-style="normal" font-weight="normal" transform="translate(1067.33,676.123) rotate(-0,9,-8)" xml:space="preserve">
    <text fill="rgb(38,38,38)" x="0 6 12 " y="-0">800</text>
   </g>
   <g font-family="FreeSans" font-size="10" font-style="normal" font-weight="normal" transform="translate(1286.78,676.123) rotate(-0,12,-8)" xml:space="preserve">
    <text fill="rgb(38,38,38)" x="0 6 12 18 " y="-0">1000</text>
   </g>
   <polyline fill="none" points="186.565,630.272 192.127,630.272" stroke="#262626" stroke-linecap="butt" stroke-linejoin="miter" stroke-width="0.5"/>
   <polyline fill="none" points="1298.78,630.272 1293.21,630.272" stroke="#262626" stroke-linecap="butt" stroke-linejoin="miter" stroke-width="0.5"/>
   <polyline fill="none" points="186.565,612.517 192.127,612.517" stroke="#262626" stroke-linecap="butt" stroke-linejoin="miter" stroke-width="0.5"/>
   <polyline fill="none" points="1298.78,612.517 1293.21,612.517" stroke="#262626" stroke-linecap="butt" stroke-linejoin="miter" stroke-width="0.5"/>
   <polyline fill="none" points="186.565,599.92 192.127,599.92" stroke="#262626" stroke-linecap="butt" stroke-linejoin="miter" stroke-width="0.5"/>
   <polyline fill="none" points="1298.78,599.92 1293.21,599.92" stroke="#262626" stroke-linecap="butt" stroke-linejoin="miter" stroke-width="0.5"/>
   <polyline fill="none" points="186.565,590.149 192.127,590.149" stroke="#262626" stroke-linecap="butt" stroke-linejoin="miter" stroke-width="0.5"/>
   <polyline fill="none" points="1298.78,590.149 1293.21,590.149" stroke="#262626" stroke-linecap="butt" stroke-linejoin="miter" stroke-width="0.5"/>
   <polyline fill="none" points="186.565,582.166 192.127,582.166" stroke="#262626" stroke-linecap="butt" stroke-linejoin="miter" stroke-width="0.5"/>
   <polyline fill="none" points="1298.78,582.166 1293.21,582.166" stroke="#262626" stroke-linecap="butt" stroke-linejoin="miter" stroke-width="0.5"/>
   <polyline fill="none" points="186.565,575.416 192.127,575.416" stroke="#262626" stroke-linecap="butt" stroke-linejoin="miter" stroke-width="0.5"/>
   <polyline fill="none" points="1298.78,575.416 1293.21,575.416" stroke="#262626" stroke-linecap="butt" stroke-linejoin="miter" stroke-width="0.5"/>
   <polyline fill="none" points="186.565,569.569 192.127,569.569" stroke="#262626" stroke-linecap="butt" stroke-linejoin="miter" stroke-width="0.5"/>
   <polyline fill="none" points="1298.78,569.569 1293.21,569.569" stroke="#262626" stroke-linecap="butt" stroke-linejoin="miter" stroke-width="0.5"/>
   <polyline fill="none" points="186.565,564.411 192.127,564.411" stroke="#262626" stroke-linecap="butt" stroke-linejoin="miter" stroke-width="0.5"/>
   <polyline fill="none" points="1298.78,564.411 1293.21,564.411" stroke="#262626" stroke-linecap="butt" stroke-linejoin="miter" stroke-width="0.5"/>
   <polyline fill="none" points="186.565,529.446 192.127,529.446" stroke="#262626" stroke-linecap="butt" stroke-linejoin="miter" stroke-width="0.5"/>
   <polyline fill="none" points="1298.78,529.446 1293.21,529.446" stroke="#262626" stroke-linecap="butt" stroke-linejoin="miter" stroke-width="0.5"/>
   <polyline fill="none" points="186.565,511.692 192.127,511.692" stroke="#262626" stroke-linecap="butt" stroke-linejoin="miter" stroke-width="0.5"/>
   <polyline fill="none" points="1298.78,511.692 1293.21,511.692" stroke="#262626" stroke-linecap="butt" stroke-linejoin="miter" stroke-width="0.5"/>
   <polyline fill="none" points="186.565,499.095 192.127,499.095" stroke="#262626" stroke-linecap="butt" stroke-linejoin="miter" stroke-width="0.5"/>
   <polyline fill="none" points="1298.78,499.095 1293.21,499.095" stroke="#262626" stroke-linecap="butt" stroke-linejoin="miter" stroke-width="0.5"/>
   <polyline fill="none" points="186.565,489.324 192.127,489.324" stroke="#262626" stroke-linecap="butt" stroke-linejoin="miter" stroke-width="0.5"/>
   <polyline fill="none" points="1298.78,489.324 1293.21,489.324" stroke="#262626" stroke-linecap="butt" stroke-linejoin="miter" stroke-width="0.5"/>
   <polyline fill="none" points="186.565,481.34 192.127,481.34" stroke="#262626" stroke-linecap="butt" stroke-linejoin="miter" stroke-width="0.5"/>
   <polyline fill="none" points="1298.78,481.34 1293.21,481.34" stroke="#262626" stroke-linecap="butt" stroke-linejoin="miter" stroke-width="0.5"/>
   <polyline fill="none" points="186.565,474.59 192.127,474.59" stroke="#262626" stroke-linecap="butt" stroke-linejoin="miter" stroke-width="0.5"/>
   <polyline fill="none" points="1298.78,474.59 1293.21,474.59" stroke="#262626" stroke-linecap="butt" stroke-linejoin="miter" stroke-width="0.5"/>
   <polyline fill="none" points="186.565,468.743 192.127,468.743" stroke="#262626" stroke-linecap="butt" stroke-linejoin="miter" stroke-width="0.5"/>
   <polyline fill="none" points="1298.78,468.743 1293.21,468.743" stroke="#262626" stroke-linecap="butt" stroke-linejoin="miter" stroke-width="0.5"/>
   <polyline fill="none" points="186.565,463.586 192.127,463.586" stroke="#262626" stroke-linecap="butt" stroke-linejoin="miter" stroke-width="0.5"/>
   <polyline fill="none" points="1298.78,463.586 1293.21,463.586" stroke="#262626" stroke-linecap="butt" stroke-linejoin="miter" stroke-width="0.5"/>
   <polyline fill="none" points="186.565,428.621 192.127,428.621" stroke="#262626" stroke-linecap="butt" stroke-linejoin="miter" stroke-width="0.5"/>
   <polyline fill="none" points="1298.78,428.621 1293.21,428.621" stroke="#262626" stroke-linecap="butt" stroke-linejoin="miter" stroke-width="0.5"/>
   <polyline fill="none" points="186.565,410.866 192.127,410.866" stroke="#262626" stroke-linecap="butt" stroke-linejoin="miter" stroke-width="0.5"/>
   <polyline fill="none" points="1298.78,410.866 1293.21,410.866" stroke="#262626" stroke-linecap="butt" stroke-linejoin="miter" stroke-width="0.5"/>
   <polyline fill="none" points="186.565,398.269 192.127,398.269" stroke="#262626" stroke-linecap="butt" stroke-linejoin="miter" stroke-width="0.5"/>
   <polyline fill="none" points="1298.78,398.269 1293.21,398.269" stroke="#262626" stroke-linecap="butt" stroke-linejoin="miter" stroke-width="0.5"/>
   <polyline fill="none" points="186.565,388.498 192.127,388.498" stroke="#262626" stroke-linecap="butt" stroke-linejoin="miter" stroke-width="0.5"/>
   <polyline fill="none" points="1298.78,388.498 1293.21,388.498" stroke="#262626" stroke-linecap="butt" stroke-linejoin="miter" stroke-width="0.5"/>
   <polyline fill="none" points="186.565,380.515 192.127,380.515" stroke="#262626" stroke-linecap="butt" stroke-linejoin="miter" stroke-width="0.5"/>
   <polyline fill="none" points="1298.78,380.515 1293.21,380.515" stroke="#262626" stroke-linecap="butt" stroke-linejoin="miter" stroke-width="0.5"/>
   <polyline fill="none" points="186.565,373.765 192.127,373.765" stroke="#262626" stroke-linecap="butt" stroke-linejoin="miter" stroke-width="0.5"/>
   <polyline fill="none" points="1298.78,373.765 1293.21,373.765" stroke="#262626" stroke-linecap="butt" stroke-linejoin="miter" stroke-width="0.5"/>
   <polyline fill="none" points="186.565,367.918 192.127,367.918" stroke="#262626" stroke-linecap="butt" stroke-linejoin="miter" stroke-width="0.5"/>
   <polyline fill="none" points="1298.78,367.918 1293.21,367.918" stroke="#262626" stroke-linecap="butt" stroke-linejoin="miter" stroke-width="0.5"/>
   <polyline fill="none" points="186.565,362.76 192.127,362.76" stroke="#262626" stroke-linecap="butt" stroke-linejoin="miter" stroke-width="0.5"/>
   <polyline fill="none" points="1298.78,362.76 1293.21,362.76" stroke="#262626" stroke-linecap="butt" stroke-linejoin="miter" stroke-width="0.5"/>
   <polyline fill="none" points="186.565,327.795 192.127,327.795" stroke="#262626" stroke-linecap="butt" stroke-linejoin="miter" stroke-width="0.5"/>
   <polyline fill="none" points="1298.78,327.795 1293.21,327.795" stroke="#262626" stroke-linecap="butt" stroke-linejoin="miter" stroke-width="0.5"/>
   <polyline fill="none" points="186.565,310.041 192.127,310.041" stroke="#262626" stroke-linecap="butt" stroke-linejoin="miter" stroke-width="0.5"/>
   <polyline fill="none" points="1298.78,310.041 1293.21,310.041" stroke="#262626" stroke-linecap="butt" stroke-linejoin="miter" stroke-width="0.5"/>
   <polyline fill="none" points="186.565,297.444 192.127,297.444" stroke="#262626" stroke-linecap="butt" stroke-linejoin="miter" stroke-width="0.5"/>
   <polyline fill="none" points="1298.78,297.444 1293.21,297.444" stroke="#262626" stroke-linecap="butt" stroke-linejoin="miter" stroke-width="0.5"/>
   <polyline fill="none" points="186.565,287.673 192.127,287.673" stroke="#262626" stroke-linecap="butt" stroke-linejoin="miter" stroke-width="0.5"/>
   <polyline fill="none" points="1298.78,287.673 1293.21,287.673" stroke="#262626" stroke-linecap="butt" stroke-linejoin="miter" stroke-width="0.5"/>
   <polyline fill="none" points="186.565,279.689 192.127,279.689" stroke="#262626" stroke-linecap="butt" stroke-linejoin="miter" stroke-width="0.5"/>
   <polyline fill="none" points="1298.78,279.689 1293.21,279.689" stroke="#262626" stroke-linecap="butt" stroke-linejoin="miter" stroke-width="0.5"/>
   <polyline fill="none" points="186.565,272.939 192.127,272.939" stroke="#262626" stroke-linecap="butt" stroke-linejoin="miter" stroke-width="0.5"/>
   <polyline fill="none" points="1298.78,272.939 1293.21,272.939" stroke="#262626" stroke-linecap="butt" stroke-linejoin="miter" stroke-width="0.5"/>
   <polyline fill="none" points="186.565,267.092 192.127,267.092" stroke="#262626" stroke-linecap="butt" stroke-linejoin="miter" stroke-width="0.5"/>
   <polyline fill="none" points="1298.78,267.092 1293.21,267.092" stroke="#262626" stroke-linecap="butt" stroke-linejoin="miter" stroke-width="0.5"/>
   <polyline fill="none" points="186.565,261.935 192.127,261.935" stroke="#262626" stroke-linecap="butt" stroke-linejoin="miter" stroke-width="0.5"/>
   <polyline fill="none" points="1298.78,261.935 1293.21,261.935" stroke="#262626" stroke-linecap="butt" stroke-linejoin="miter" stroke-width="0.5"/>
   <polyline fill="none" points="186.565,226.97 192.127,226.97" stroke="#262626" stroke-linecap="butt" stroke-linejoin="miter" stroke-width="0.5"/>
   <polyline fill="none" points="1298.78,226.97 1293.21,226.97" stroke="#262626" stroke-linecap="butt" stroke-linejoin="miter" stroke-width="0.5"/>
   <polyline fill="none" points="186.565,209.215 192.127,209.215" stroke="#262626" stroke-linecap="butt" stroke-linejoin="miter" stroke-width="0.5"/>
   <polyline fill="none" points="1298.78,209.215 1293.21,209.215" stroke="#262626" stroke-linecap="butt" stroke-linejoin="miter" stroke-width="0.5"/>
   <polyline fill="none" points="186.565,196.618 192.127,196.618" stroke="#262626" stroke-linecap="butt" stroke-linejoin="miter" stroke-width="0.5"/>
   <polyline fill="none" points="1298.78,196.618 1293.21,196.618" stroke="#262626" stroke-linecap="butt" stroke-linejoin="miter" stroke-width="0.5"/>
   <polyline fill="none" points="186.565,186.847 192.127,186.847" stroke="#262626" stroke-linecap="butt" stroke-linejoin="miter" stroke-width="0.5"/>
   <polyline fill="none" points="1298.78,186.847 1293.21,186.847" stroke="#262626" stroke-linecap="butt" stroke-linejoin="miter" stroke-width="0.5"/>
   <polyline fill="none" points="186.565,178.864 192.127,178.864" stroke="#262626" stroke-linecap="butt" stroke-linejoin="miter" stroke-width="0.5"/>
   <polyline fill="none" points="1298.78,178.864 1293.21,178.864" stroke="#262626" stroke-linecap="butt" stroke-linejoin="miter" stroke-width="0.5"/>
   <polyline fill="none" points="186.565,172.114 192.127,172.114" stroke="#262626" stroke-linecap="butt" stroke-linejoin="miter" stroke-width="0.5"/>
   <polyline fill="none" points="1298.78,172.114 1293.21,172.114" stroke="#262626" stroke-linecap="butt" stroke-linejoin="miter" stroke-width="0.5"/>
   <polyline fill="none" points="186.565,166.267 192.127,166.267" stroke="#262626" stroke-linecap="butt" stroke-linejoin="miter" stroke-width="0.5"/>
   <polyline fill="none" points="1298.78,166.267 1293.21,166.267" stroke="#262626" stroke-linecap="butt" stroke-linejoin="miter" stroke-width="0.5"/>
   <polyline fill="none" points="186.565,161.109 192.127,161.109" stroke="#262626" stroke-linecap="butt" stroke-linejoin="miter" stroke-width="0.5"/>
   <polyline fill="none" points="1298.78,161.109 1293.21,161.109" stroke="#262626" stroke-linecap="butt" stroke-linejoin="miter" stroke-width="0.5"/>
   <polyline fill="none" points="186.565,126.144 192.127,126.144" stroke="#262626" stroke-linecap="butt" stroke-linejoin="miter" stroke-width="0.5"/>
   <polyline fill="none" points="1298.78,126.144 1293.21,126.144" stroke="#262626" stroke-linecap="butt" stroke-linejoin="miter" stroke-width="0.5"/>
   <polyline fill="none" points="186.565,108.39 192.127,108.39" stroke="#262626" stroke-linecap="butt" stroke-linejoin="miter" stroke-width="0.5"/>
   <polyline fill="none" points="1298.78,108.39 1293.21,108.39" stroke="#262626" stroke-linecap="butt" stroke-linejoin="miter" stroke-width="0.5"/>
   <polyline fill="none" points="186.565,95.793 192.127,95.793" stroke="#262626" stroke-linecap="butt" stroke-linejoin="miter" stroke-width="0.5"/>
   <polyline fill="none" points="1298.78,95.793 1293.21,95.793" stroke="#262626" stroke-linecap="butt" stroke-linejoin="miter" stroke-width="0.5"/>
   <polyline fill="none" points="186.565,86.022 192.127,86.022" stroke="#262626" stroke-linecap="butt" stroke-linejoin="miter" stroke-width="0.5"/>
   <polyline fill="none" points="1298.78,86.022 1293.21,86.022" stroke="#262626" stroke-linecap="butt" stroke-linejoin="miter" stroke-width="0.5"/>
   <polyline fill="none" points="186.565,78.0385 192.127,78.0385" stroke="#262626" stroke-linecap="butt" stroke-linejoin="miter" stroke-width="0.5"/>
   <polyline fill="none" points="1298.78,78.0385 1293.21,78.0385" stroke="#262626" stroke-linecap="butt" stroke-linejoin="miter" stroke-width="0.5"/>
   <polyline fill="none" points="186.565,71.2886 192.127,71.2886" stroke="#262626" stroke-linecap="butt" stroke-linejoin="miter" stroke-width="0.5"/>
   <polyline fill="none" points="1298.78,71.2886 1293.21,71.2886" stroke="#262626" stroke-linecap="butt" stroke-linejoin="miter" stroke-width="0.5"/>
   <polyline fill="none" points="186.565,65.4415 192.127,65.4415" stroke="#262626" stroke-linecap="butt" stroke-linejoin="miter" stroke-width="0.5"/>
   <polyline fill="none" points="1298.78,65.4415 1293.21,65.4415" stroke="#262626" stroke-linecap="butt" stroke-linejoin="miter" stroke-width="0.5"/>
   <polyline fill="none" points="186.565,60.284 192.127,60.284" stroke="#262626" stroke-linecap="butt" stroke-linejoin="miter" stroke-width="0.5"/>
   <polyline fill="none" points="1298.78,60.284 1293.21,60.284" stroke="#262626" stroke-linecap="butt" stroke-linejoin="miter" stroke-width="0.5"/>
   <polyline fill="none" points="186.565,660.623 197.689,660.623" stroke="#262626" stroke-linecap="butt" stroke-linejoin="miter" stroke-width="0.5"/>
   <polyline fill="none" points="1298.78,660.623 1287.65,660.623" stroke="#262626" stroke-linecap="butt" stroke-linejoin="miter" stroke-width="0.5"/>
   <polyline fill="none" points="186.565,559.798 197.689,559.798" stroke="#262626" stroke-linecap="butt" stroke-linejoin="miter" stroke-width="0.5"/>
   <polyline fill="none" points="1298.78,559.798 1287.65,559.798" stroke="#262626" stroke-linecap="butt" stroke-linejoin="miter" stroke-width="0.5"/>
   <polyline fill="none" points="186.565,458.972 197.689,458.972" stroke="#262626" stroke-linecap="butt" stroke-linejoin="miter" stroke-width="0.5"/>
   <polyline fill="none" points="1298.78,458.972 1287.65,458.972" stroke="#262626" stroke-linecap="butt" stroke-linejoin="miter" stroke-width="0.5"/>
   <polyline fill="none" points="186.565,358.147 197.689,358.147" stroke="#262626" stroke-linecap="butt" stroke-linejoin="miter" stroke-width="0.5"/>
   <polyline fill="none" points="1298.78,358.147 1287.65,358.147" stroke="#262626" stroke-linecap="butt" stroke-linejoin="miter" stroke-width="0.5"/>
   <polyline fill="none" points="186.565,257.321 197.689,257.321" stroke="#262626" stroke-linecap="butt" stroke-linejoin="miter" stroke-width="0.5"/>
   <polyline fill="none" points="1298.78,257.321 1287.65,257.321" stroke="#262626" stroke-linecap="butt" stroke-linejoin="miter" stroke-width="0.5"/>
   <polyline fill="none" points="186.565,156.496 197.689,156.496" stroke="#262626" stroke-linecap="butt" stroke-linejoin="miter" stroke-width="0.5"/>
   <polyline fill="none" points="1298.78,156.496 1287.65,156.496" stroke="#262626" stroke-linecap="butt" stroke-linejoin="miter" stroke-width="0.5"/>
   <polyline fill="none" points="186.565,55.6705 197.689,55.6705" stroke="#262626" stroke-linecap="butt" stroke-linejoin="miter" stroke-width="0.5"/>
   <polyline fill="none" points="1298.78,55.6705 1287.65,55.6705" stroke="#262626" stroke-linecap="butt" stroke-linejoin="miter" stroke-width="0.5"/>
   <g font-family="FreeSans" font-size="10" font-style="normal" font-weight="normal" transform="translate(163.564,665.623) rotate(-0,18,-5)" xml:space="preserve">
    <text fill="rgb(38,38,38)" x="0 6 " y="-0">10</text>
    <text fill="rgb(38,38,38)" font-size="7" x="12 14 " y="-4">-2</text>
   </g>
   <g font-family="FreeSans" font-size="10" font-style="normal" font-weight="normal" transform="translate(163.564,564.798) rotate(-0,18,-5)" xml:space="preserve">
    <text fill="rgb(38,38,38)" x="0 6 " y="-0">10</text>
    <text fill="rgb(38,38,38)" font-size="7" x="12 14 " y="-4">-1</text>
   </g>
   <g font-family="FreeSans" font-size="10" font-style="normal" font-weight="normal" transform="translate(165.564,463.972) rotate(-0,16,-5)" xml:space="preserve">
    <text fill="rgb(38,38,38)" x="0 6 " y="-0">10</text>
    <text fill="rgb(38,38,38)" font-size="7" x="12 " y="-4">0</text>
   </g>
   <g font-family="FreeSans" font-size="10" font-style="normal" font-weight="normal" transform="translate(165.564,363.147) rotate(-0,16,-5)" xml:space="preserve">
    <text fill="rgb(38,38,38)" x="0 6 " y="-0">10</text>
    <text fill="rgb(38,38,38)" font-size="7" x="12 " y="-4">1</text>
   </g>
   <g font-family="FreeSans" font-size="10" font-style="normal" font-weight="normal" transform="translate(165.564,262.321) rotate(-0,16,-5)" xml:space="preserve">
    <text fill="rgb(38,38,38)" x="0 6 " y="-0">10</text>
    <text fill="rgb(38,38,38)" font-size="7" x="12 " y="-4">2</text>
   </g>
   <g font-family="FreeSans" font-size="10" font-style="normal" font-weight="normal" transform="translate(165.564,161.496) rotate(-0,16,-5)" xml:space="preserve">
    <text fill="rgb(38,38,38)" x="0 6 " y="-0">10</text>
    <text fill="rgb(38,38,38)" font-size="7" x="12 " y="-4">3</text>
   </g>
   <g font-family="FreeSans" font-size="10" font-style="normal" font-weight="normal" transform="translate(165.564,60.6705) rotate(-0,16,-5)" xml:space="preserve">
    <text fill="rgb(38,38,38)" x="0 6 " y="-0">10</text>
    <text fill="rgb(38,38,38)" font-size="7" x="12 " y="-4">4</text>
   </g>
   <polyline fill="none" points="186.565,660.623 1298.78,660.623" stroke="#262626" stroke-dasharray="16,0" stroke-linecap="square" stroke-linejoin="miter" stroke-width="0.5"/>
   <polyline fill="none" points="186.565,55.6705 1298.78,55.6705" stroke="#262626" stroke-dasharray="16,0" stroke-linecap="square" stroke-linejoin="miter" stroke-width="0.5"/>
   <polyline fill="none" points="186.565,660.623 186.565,55.6705" stroke="#262626" stroke-dasharray="16,0" stroke-linecap="square" stroke-linejoin="miter" stroke-width="0.5"/>
   <polyline fill="none" points="1298.78,660.623 1298.78,55.6705" stroke="#262626" stroke-dasharray="16,0" stroke-linecap="square" stroke-linejoin="miter" stroke-width="0.5"/>
   <polyline fill="none" points="187.677,103.968 188.789,113.432 189.901,122.55 191.013,131.3 192.126,139.667 193.238,147.641 194.35,155.218 195.462,162.401 196.574,169.196 197.687,175.614 198.799,181.672 199.911,187.385 201.023,192.773 202.135,197.854 203.248,202.645 204.36,207.166 205.472,211.433 206.584,215.462 207.697,219.269 208.809,228.621 209.921,236.527 211.033,243.311 212.145,249.212 213.258,254.411 214.37,259.047 215.482,263.229 216.594,267.041 217.706,276.047 218.819,283.417 219.931,289.849 221.043,295.663 222.155,301.03 223.268,306.051 224.38,310.788 225.492,315.286 226.604,319.577 227.716,323.682 228.829,327.621 229.941,331.405 231.053,335.046 232.165,344.225 233.277,352.421 234.39,359.763 235.502,366.347 236.614,372.261 237.726,377.591 238.838,382.421 239.951,386.831 241.063,390.888 242.175,394.64 243.287,398.001 244.4,399.634 245.512,402.02 246.624,403.701 247.736,404.167 248.848,407.12 249.961,406.617 251.073,410.352 252.185,408.691 253.297,413.412 254.409,410.369 255.522,416.31 256.634,417.937 257.746,417.347 258.858,420.834 259.971,419.247 261.083,423.62 262.195,420.824 263.307,426.293 264.419,427.788 265.532,427.322 266.644,430.489 267.756,429.158 268.868,433.109 269.98,430.723 271.093,435.644 272.205,431.983 273.317,438.087 274.429,439.596 275.541,438.596 276.654,442.104 277.766,440.189 278.878,444.545 279.99,441.516 281.103,446.911 282.215,448.3 283.327,447.65 284.439,450.725 285.551,449.287 286.664,453.095 287.776,450.694 288.888,455.403 290,451.838 291.112,457.641 292.225,459.041 293.337,458.059 294.449,461.352 295.561,459.545 296.673,463.611 297.786,460.801 298.898,465.809 300.01,461.794 301.122,467.938 302.235,469.347 303.347,468.082 304.459,471.557 305.571,469.439 306.683,473.715 307.796,470.564 308.908,475.811 310.02,471.427 311.132,477.836 312.244,479.246 313.357,477.743 314.469,481.355 315.581,478.98 316.693,483.409 317.806,479.986 318.918,485.398 320.03,480.732 321.142,487.313 322.254,488.709 323.367,487.014 324.479,490.704 325.591,488.135 326.703,492.641 327.815,489.027 328.928,494.509 330.04,489.664 331.152,496.298 332.264,497.656 333.376,495.827 334.489,499.518 335.601,496.831 336.713,501.314 337.825,497.611 338.938,503.038 340.05,498.144 341.162,504.68 342.274,505.971 343.386,504.077 344.499,507.671 345.611,504.96 346.723,509.301 347.835,505.629 348.947,510.854 350.06,506.067 351.172,512.323 352.284,513.516 353.396,511.64 354.508,515.026 355.621,512.399 356.733,516.463 357.845,512.963 358.957,517.823 360.07,513.314 361.182,519.1 362.294,513.437 363.406,520.286 364.518,521.464 365.631,519.033 366.743,522.693 367.855,519.497 368.967,523.847 370.079,519.775 371.192,524.923 372.304,519.854 373.416,525.916 374.528,526.923 375.641,524.779 376.753,527.942 377.865,525.159 378.977,528.893 380.089,525.379 381.202,529.776 382.314,525.432 383.426,530.587 384.538,525.309 385.65,531.324 386.763,525.001 387.875,528.305 388.987,532.562 390.099,528.271 391.211,533.243 392.324,528.075 393.436,533.859 394.548,527.71 395.66,534.406 396.773,535.355 397.885,532.542 398.997,535.952 400.109,532.526 401.221,536.5 402.334,532.381 403.446,536.996 404.558,532.1 405.67,537.441 406.782,531.675 407.895,537.833 409.007,531.101 410.119,534.445 411.231,538.74 412.343,534.148 413.456,539.114 414.568,533.722 415.68,539.443 416.792,533.16 417.905,539.725 419.017,540.573 420.129,537.651 421.241,540.922 422.353,537.454 423.466,541.239 424.578,537.156 425.69,541.524 426.802,536.748 427.914,541.776 429.027,536.224 430.139,541.992 431.251,535.576 432.363,542.172 433.475,542.992 434.588,539.982 435.7,543.248 436.812,539.712 437.924,543.48 439.037,539.35 440.149,543.687 441.261,538.888 442.373,543.868 443.485,538.319 444.598,544.021 445.71,537.635 446.822,544.144 447.934,544.935 449.046,541.933 450.159,545.138 451.271,541.63 452.383,545.323 453.495,541.241 454.608,545.488 455.72,540.76 456.832,545.631 457.944,540.178 459.056,545.751 460.169,539.487 461.281,545.844 462.393,546.606 463.505,543.665 464.617,546.781 465.73,543.353 466.842,546.941 467.954,542.96 469.066,547.084 470.178,542.478 471.291,547.209 472.403,541.901 473.515,547.312 474.627,541.219 475.74,547.393 476.852,540.426 477.964,543.751 479.076,548.002 480.188,543.24 481.301,548.113 482.413,542.632 483.525,548.204 484.637,541.917 485.749,548.271 486.862,549.027 487.974,528.976 489.086,536.068 490.198,541.255 491.311,544.747 492.423,549.253 493.535,544.189 494.647,549.349 495.759,543.532 496.872,549.423 497.984,542.766 499.096,549.474 500.208,550.273 501.32,547.125 502.433,550.414 503.545,546.758 504.657,550.543 505.769,546.31 506.881,550.656 507.994,545.773 509.106,550.752 510.218,545.139 511.33,550.828 512.443,544.399 513.555,550.881 514.667,551.651 515.779,548.625 516.891,551.792 518.004,548.275 519.116,551.921 520.228,547.847 521.34,552.035 522.452,547.332 523.565,552.133 524.677,546.723 525.789,552.212 526.901,546.01 528.013,552.27 529.126,545.186 530.238,548.552 531.35,552.866 532.462,548.014 533.575,552.959 534.687,547.379 535.799,553.032 536.911,546.638 538.023,553.083 539.136,553.849 540.248,550.849 541.36,553.988 542.472,550.5 543.584,554.115 544.697,550.072 545.809,554.228 546.921,549.558 548.033,554.324 549.146,548.949 550.258,554.402 551.37,548.237 552.482,554.458 553.594,547.414 554.707,550.762 555.819,555.051 556.931,550.224 558.043,555.142 559.155,549.589 560.268,555.214 561.38,548.848 562.492,555.264 563.604,556.029 564.716,553.05 565.829,556.167 566.941,552.702 568.053,556.294 569.165,552.275 570.278,556.406 571.39,551.761 572.502,556.502 573.614,551.153 574.726,556.579 575.839,550.441 576.951,556.634 578.063,549.617 579.175,552.953 580.287,557.225 581.4,552.414 582.512,557.316 583.624,551.778 584.736,557.387 585.849,551.036 586.961,557.436 588.073,558.202 589.185,538.098 590.297,545.184 591.41,550.371 592.522,553.869 593.634,558.391 594.746,553.291 595.858,558.474 596.971,552.612 598.083,558.536 599.195,551.824 600.307,558.574 601.419,559.386 602.532,556.229 603.644,559.519 604.756,555.849 605.868,559.639 606.981,555.388 608.093,559.744 609.205,554.835 610.317,559.833 611.429,554.184 612.542,559.901 613.654,553.426 614.766,559.946 615.878,560.727 616.99,557.698 618.103,560.863 619.215,557.338 620.327,560.987 621.439,556.899 622.551,561.096 623.664,556.372 624.776,561.189 625.888,555.748 627,561.263 628.112,555.018 629.225,561.314 630.337,554.176 631.449,557.561 632.561,561.912 633.674,557.007 634.786,562 635.898,556.353 637.01,562.067 638.122,555.592 639.235,562.111 640.347,562.896 641.459,559.872 642.571,563.031 643.683,559.512 644.796,563.155 645.908,559.071 647.02,563.264 648.132,558.542 649.245,563.356 650.357,557.916 651.469,563.429 652.581,557.184 653.693,563.48 654.806,556.338 655.918,559.723 657.03,564.078 658.142,559.166 659.254,564.165 660.367,558.509 661.479,564.231 662.591,557.743 663.703,564.274 664.815,565.063 665.928,562.038 667.04,565.198 668.152,561.676 669.264,565.321 670.377,561.233 671.489,565.429 672.601,560.701 673.713,565.521 674.825,560.071 675.938,565.593 677.05,559.335 678.162,565.643 679.274,558.484 680.386,561.875 681.499,566.242 682.611,561.314 683.723,566.328 684.835,560.652 685.948,566.393 687.06,559.88 688.172,566.435 689.284,567.229 690.396,564.197 691.509,567.363 692.621,563.832 693.733,567.486 694.845,563.385 695.957,567.594 697.07,562.849 698.182,567.684 699.294,562.214 700.406,567.755 701.518,561.472 702.631,567.804 703.743,568.568 704.855,548.699 705.967,555.717 707.08,560.845 708.192,564.297 709.304,568.758 710.416,563.721 711.528,568.84 712.641,563.042 713.753,568.902 714.865,562.252 715.977,568.94 717.089,569.751 718.202,566.648 719.314,569.884 720.426,566.27 721.538,570.005 722.651,565.81 723.763,570.11 724.875,565.259 725.987,570.198 727.099,564.608 728.212,570.265 729.324,563.848 730.436,570.31 731.548,571.092 732.66,568.111 733.773,571.228 734.885,567.754 735.997,571.351 737.109,567.317 738.221,571.461 739.334,566.79 740.446,571.554 741.558,566.166 742.67,571.627 743.783,565.435 744.895,571.677 746.007,564.59 747.119,567.951 748.231,572.272 749.344,567.394 750.456,572.359 751.568,566.736 752.68,572.425 753.792,565.969 754.905,572.467 756.017,573.256 757.129,570.261 758.241,573.392 759.354,569.9 760.466,573.515 761.578,569.458 762.69,573.623 763.802,568.926 764.915,573.715 766.027,568.295 767.139,573.787 768.251,567.557 769.363,573.836 770.476,566.703 771.588,570.082 772.7,574.433 773.812,569.518 774.924,574.518 776.037,568.853 777.149,574.583 778.261,568.077 779.373,574.623 780.486,575.42 781.598,572.404 782.71,575.555 783.822,572.038 784.934,575.677 786.047,571.59 787.159,575.784 788.271,571.051 789.383,575.874 790.495,570.413 791.608,575.945 792.72,569.667 793.832,575.992 794.944,576.76 796.057,556.946 797.169,563.944 798.281,569.056 799.393,572.498 800.505,576.948 801.618,571.919 802.73,577.03 803.842,571.236 804.954,577.091 806.066,570.441 807.179,577.127 808.291,577.943 809.403,574.851 810.515,578.075 811.627,574.472 812.74,578.195 813.852,574.01 814.964,578.3 816.076,573.455 817.188,578.387 818.301,572.8 819.413,578.453 820.525,572.035 821.637,578.496 822.75,579.283 823.862,576.313 824.974,579.419 826.086,575.954 827.198,579.542 828.311,575.515 829.423,579.651 830.535,574.985 831.647,579.743 832.759,574.357 833.872,579.815 834.984,573.621 836.096,579.864 837.208,572.769 838.32,576.131 839.433,580.459 840.545,575.569 841.657,580.545 842.769,574.905 843.882,580.609 844.994,574.129 846.106,580.65 847.218,581.446 848.33,578.449 849.443,581.581 850.555,578.084 851.667,581.703 852.779,577.637 853.891,581.81 855.004,577.1 856.116,581.901 857.228,576.463 858.34,581.971 859.453,575.717 860.565,582.018 861.677,582.786 862.789,563.049 863.901,570.025 865.014,575.117 866.126,578.545 867.238,582.974 868.35,577.966 869.462,583.056 870.575,577.284 871.687,583.117 872.799,576.49 873.911,583.153 875.023,583.968 876.136,580.894 877.248,584.101 878.36,580.516 879.472,584.221 880.585,580.055 881.697,584.325 882.809,579.501 883.921,584.413 885.033,578.847 886.146,584.479 887.258,578.082 888.37,584.522 889.482,585.308 890.594,565.226 891.707,572.287 892.819,577.461 893.931,580.955 895.043,585.487 896.156,580.36 897.268,585.566 898.38,579.66 899.492,585.623 900.604,578.846 901.717,585.655 902.829,586.49 903.941,583.335 905.053,586.62 906.165,582.944 907.278,586.738 908.39,582.469 909.502,586.84 910.614,581.899 911.726,586.924 912.839,581.227 913.951,586.987 915.063,580.443 916.175,587.025 917.288,587.83 918.4,584.799 919.512,587.964 920.624,584.428 921.736,588.085 922.849,583.975 923.961,588.191 925.073,583.43 926.185,588.28 927.297,582.785 928.41,588.349 929.522,582.031 930.634,588.394 931.746,589.17 932.859,569.278 933.971,576.292 935.083,581.421 936.195,584.879 937.307,589.354 938.42,584.293 939.532,589.434 940.644,583.602 941.756,589.494 942.868,582.799 943.981,589.528 945.093,590.352 946.205,587.241 947.317,590.484 948.429,586.857 949.542,590.602 950.654,586.389 951.766,590.706 952.878,585.828 953.991,590.792 955.103,585.165 956.215,590.856 957.327,584.391 958.439,590.897 959.552,591.692 960.664,588.703 961.776,591.827 962.888,588.339 964,591.949 965.113,587.893 966.225,592.057 967.337,587.357 968.449,592.147 969.562,586.72 970.674,592.218 971.786,585.976 972.898,592.265 974.01,593.031 975.122,573.324 976.235,580.292 977.347,585.377 978.459,588.8 979.571,593.22 980.684,588.222 981.796,593.302 982.908,587.541 984.02,593.363 985.133,586.747 986.245,593.4 987.357,594.214 988.469,591.145 989.581,594.346 990.693,590.768 991.806,594.466 992.918,590.307 994.03,594.571 995.142,589.754 996.255,594.659 997.367,589.1 998.479,594.725 999.591,588.336 1000.7,594.768 1001.82,595.553 1002.93,575.491 1004.04,582.546 1005.15,587.716 1006.26,591.207 1007.38,595.733 1008.49,590.612 1009.6,595.812 1010.71,589.912 1011.83,595.869 1012.94,589.099 1014.05,595.901 1015.16,596.735 1016.27,593.584 1017.39,596.866 1018.5,593.193 1019.61,596.983 1020.72,592.718 1021.84,597.085 1022.95,592.148 1024.06,597.169 1025.17,591.476 1026.28,597.232 1027.4,590.692 1028.51,597.271 1029.62,598.075 1030.73,595.046 1031.85,598.209 1032.96,594.676 1034.07,598.33 1035.18,594.222 1036.29,598.436 1037.41,593.677 1038.52,598.525 1039.63,593.032 1040.74,598.594 1041.86,592.278 1042.97,598.639 1044.08,599.414 1045.19,579.528 1046.3,586.54 1047.42,591.668 1048.53,595.125 1049.64,599.599 1050.75,594.538 1051.87,599.679 1052.98,593.847 1054.09,599.738 1055.2,593.043 1056.31,599.772 1057.43,600.596 1058.54,597.486 1059.65,600.728 1060.76,597.102 1061.88,600.847 1062.99,596.633 1064.1,600.95 1065.21,596.072 1066.32,601.036 1067.44,595.408 1068.55,601.101 1069.66,594.634 1070.77,601.141 1071.88,601.936 1073,598.946 1074.11,602.071 1075.22,598.582 1076.33,602.193 1077.45,598.135 1078.56,602.301 1079.67,597.598 1080.78,602.391 1081.89,596.961 1083.01,602.462 1084.12,596.216 1085.23,602.509 1086.34,603.276 1087.46,583.559 1088.57,590.529 1089.68,595.617 1090.79,599.041 1091.9,603.464 1093.02,598.462 1094.13,603.546 1095.24,597.78 1096.35,603.607 1097.47,596.985 1098.58,603.643 1099.69,604.458 1100.8,601.386 1101.91,604.591 1103.03,601.008 1104.14,604.71 1105.25,600.547 1106.36,604.815 1107.48,599.993 1108.59,604.902 1109.7,599.337 1110.81,604.969 1111.92,598.572 1113.04,605.012 1114.15,605.797 1115.26,585.717 1116.37,592.777 1117.49,597.95 1118.6,601.444 1119.71,605.977 1120.82,600.848 1121.93,606.055 1123.05,600.147 1124.16,606.112 1125.27,599.332 1126.38,606.144 1127.5,606.979 1128.61,603.823 1129.72,607.109 1130.83,603.431 1131.94,607.227 1133.06,602.954 1134.17,607.329 1135.28,602.383 1136.39,607.412 1137.51,601.709 1138.62,607.475 1139.73,600.924 1140.84,607.513 1141.95,608.319 1143.07,605.285 1144.18,608.453 1145.29,604.913 1146.4,608.573 1147.52,604.458 1148.63,608.679 1149.74,603.911 1150.85,608.768 1151.96,603.264 1153.08,608.836 1154.19,602.507 1155.3,608.881 1156.41,609.658 1157.53,589.742 1158.64,596.761 1159.75,601.896 1160.86,605.358 1161.97,609.841 1163.09,604.77 1164.2,609.922 1165.31,604.077 1166.42,609.98 1167.54,603.271 1168.65,610.014 1169.76,610.84 1170.87,607.722 1171.98,610.972 1173.1,607.336 1174.21,611.09 1175.32,606.866 1176.43,611.193 1177.55,606.302 1178.66,611.278 1179.77,605.636 1180.88,611.343 1181.99,604.859 1183.11,611.383 1184.22,612.18 1185.33,609.181 1186.44,612.314 1187.55,608.815 1188.67,612.436 1189.78,608.367 1190.89,612.543 1192,607.827 1193.12,612.633 1194.23,607.188 1195.34,612.703 1196.45,606.44 1197.56,612.75 1198.68,613.519 1199.79,593.761 1200.9,600.741 1202.01,605.838 1203.13,609.27 1204.24,613.706 1205.35,608.689 1206.46,613.788 1207.57,608.004 1208.69,613.848 1209.8,607.207 1210.91,613.884 1212.02,614.701 1213.14,611.619 1214.25,614.833 1215.36,611.239 1216.47,614.953 1217.58,610.775 1218.7,615.057 1219.81,610.219 1220.92,615.144 1222.03,609.56 1223.15,615.21 1224.26,608.792 1225.37,615.252 1226.48,616.04 1227.59,613.077 1228.71,616.176 1229.82,612.716 1230.93,616.299 1232.04,612.274 1233.16,616.407 1234.27,611.742 1235.38,616.499 1236.49,611.11 1237.6,616.57 1238.72,610.37 1239.83,616.618 1240.94,609.513 1242.05,612.879 1243.17,617.214 1244.28,612.312 1245.39,617.299 1246.5,611.643 1247.61,617.362 1248.73,610.862 1249.84,617.401 1250.95,618.202 1252.06,615.199 1253.18,618.336 1254.29,614.831 1255.4,618.458 1256.51,614.38 1257.62,618.564 1258.74,613.838 1259.85,618.654 1260.96,613.195 1262.07,618.723 1263.19,612.443 1264.3,618.769 1265.41,619.541 1266.52,599.756 1267.63,606.741 1268.75,611.844 1269.86,615.281 1270.97,619.727 1272.08,614.697 1273.2,619.808 1274.31,614.008 1275.42,619.867 1276.53,613.207 1277.64,619.902 1278.76,620.723 1279.87,617.635 1280.98,620.855 1282.09,617.253 1283.21,620.974 1284.32,616.786 1285.43,621.078 1286.54,616.227 1287.65,621.164 1288.77,615.565 1289.88,621.229 1290.99,614.793 1292.1,621.27 1293.22,622.062 1294.33,619.092 1295.44,622.198 1296.55,618.73 1297.66,622.32 1298.78,618.285" stroke="#0071bc" stroke-linecap="butt" stroke-linejoin="round" stroke-width="0.5"/>
  </g>
 </g>
</svg>
